Coordinates
version=1
nRows=13
nColumns=40
inDegrees=yes

Units are S.I. units (second, meters, Newtons, ...)
Angles are in degrees.

endheader
time	pelvis_tilt	pelvis_list	pelvis_rotation	pelvis_tx	pelvis_ty	pelvis_tz	hip_flexion_r	hip_adduction_r	hip_rotation_r	knee_angle_r	knee_angle_r_beta	ankle_angle_r	subtalar_angle_r	mtp_angle_r	hip_flexion_l	hip_adduction_l	hip_rotation_l	knee_angle_l	knee_angle_l_beta	ankle_angle_l	subtalar_angle_l	mtp_angle_l	lumbar_extension	lumbar_bending	lumbar_rotation	arm_flex_r	arm_add_r	arm_rot_r	elbow_flex_r	pro_sup_r	wrist_flex_r	wrist_dev_r	arm_flex_l	arm_add_l	arm_rot_l	elbow_flex_l	pro_sup_l	wrist_flex_l	wrist_dev_l
     47.55000000	     -1.42201207	     -4.18685255	     -1.16638846	      1.14626954	      0.92372755	      0.58120496	     13.53611527	      5.83870954	     -7.86445093	     25.09465421	     25.09465421	     15.52211682	     -5.79030487	     -3.94151499	     31.68837495	    -14.14466359	      5.20395834	     77.45456880	     77.45456880	      9.99692942	    -19.16202389	     16.63283389	    -10.71833758	      4.72324857	      0.44930184	     19.69060292	    -15.39678678	    -11.29016984	     43.16274284	     44.94444229	      0.00000000	      0.00000000	      1.97177860	     -7.82217067	      0.68361891	     25.89494858	     44.78236152	      0.00000000	      0.00000000
     47.57092857	     -1.17548849	     -4.10958117	     -0.21617947	      1.14597513	      0.92133448	      0.58198801	     13.79728482	      5.80488111	     -7.94992886	     26.53409853	     26.53409853	     16.11685255	     -7.44280617	     -4.01759056	     32.62574113	    -14.08939772	      5.53494447	     75.32763123	     75.32763123	     10.49540094	    -19.27699467	     17.08606292	    -10.92491124	      4.57306216	      0.37005318	     22.46971382	    -15.28576108	    -11.36428448	     45.34770188	     44.89299875	      0.00000000	      0.00000000	     -0.39602080	     -7.91528509	      0.91987974	     24.77797297	     44.71904250	      0.00000000	      0.00000000
     47.59185714	     -0.91854526	     -4.10683827	      0.78779908	      1.14563701	      0.91904657	      0.58270287	     13.95477199	      5.94185631	     -7.85492295	     27.80479937	     27.80479937	     16.84496838	     -9.34574847	     -3.14518435	     33.48989777	    -14.03391167	      5.85523497	     72.85608601	     72.85608601	     11.38028491	    -19.34130141	     18.63182640	    -11.22215562	      4.55135857	      0.37599754	     24.87254149	    -15.64840855	    -10.32752058	     49.05502074	     44.78413778	      0.00000000	      0.00000000	     -3.12310175	     -8.25623564	      2.32453409	     24.63965775	     44.49334170	      0.00000000	      0.00000000
     47.61278571	     -0.73165937	     -4.02986688	      1.84293625	      1.14526591	      0.91687151	      0.58313616	     14.10730258	      5.91073333	     -8.07451588	     28.93631394	     28.93631394	     17.36526696	    -10.83171510	     -3.02258440	     34.21324114	    -13.88975745	      5.94858703	     69.86948943	     69.86948943	     11.82731457	    -19.39947742	     18.90757117	    -11.40575911	      4.46281120	      0.22495817	     27.97235877	    -15.65834855	    -10.25920378	     51.18398998	     44.73665359	      0.00000000	      0.00000000	     -5.48298675	     -8.43673832	      2.86199936	     23.54714389	     44.37904164	      0.00000000	      0.00000000
     47.63371429	     -0.57925860	     -3.92908844	      2.92071235	      1.14483562	      0.91512012	      0.58325698	     14.16116173	      5.85256860	     -8.32012639	     29.81215149	     29.81215149	     17.82164257	    -12.19357611	     -2.68679341	     34.73463207	    -13.64122384	      5.89749441	     66.40396257	     66.40396257	     12.23013897	    -19.41573778	     19.20232439	    -11.57205488	      4.39969372	      0.20336525	     30.99521542	    -15.87904895	    -10.06354587	     53.34221437	     44.68362937	      0.00000000	      0.00000000	     -7.72867039	     -8.65694674	      3.42999004	     22.82185135	     44.25050832	      0.00000000	      0.00000000
     47.65464286	     -0.45725720	     -3.75474766	      3.99383936	      1.14434363	      0.91394232	      0.58295947	     14.09749917	      5.64954708	     -8.72761206	     30.43402772	     30.43402772	     18.21588998	    -13.16896871	     -2.47175850	     34.99621440	    -13.21551473	      5.68364511	     62.48047716	     62.48047716	     12.47642522	    -19.39453212	     19.37976021	    -11.74612370	      4.29897163	      0.51286632	     33.93101210	    -16.43840938	    -10.02135765	     55.08785356	     44.64498664	      0.00000000	      0.00000000	     -9.55269449	     -8.86264572	      3.75778075	     22.31547482	     44.16180681	      0.00000000	      0.00000000
     47.67557143	     -0.50069887	     -3.59215013	      5.07753886	      1.14377670	      0.91323602	      0.58229682	     14.02063648	      5.43768703	     -9.19231576	     30.69133667	     30.69133667	     18.56565874	    -13.92256554	     -1.90377789	     35.14521475	    -12.65148957	      5.44902496	     58.12395222	     58.12395222	     12.29783343	    -19.34178127	     18.91267318	    -11.77665088	      4.23432809	      0.29537584	     36.81275775	    -16.67463594	     -9.62781439	     57.40257394	     44.58068739	      0.00000000	      0.00000000	    -11.62589089	     -9.07910979	      4.40174699	     22.24448859	     44.00401064	      0.00000000	      0.00000000
     47.69650000	     -0.69914377	     -3.41895051	      6.17880434	      1.14302619	      0.91314197	      0.58110920	     13.91868538	      5.11679442	     -9.89046632	     30.58949931	     30.58949931	     18.68669277	    -14.35587130	     -1.64807060	     35.23154380	    -11.86479463	      5.30802549	     53.49851709	     53.49851709	     11.87867457	    -19.20731914	     18.95280615	    -11.60328464	      4.16238647	      0.81792725	     39.51010894	    -17.57503443	     -9.67411095	     58.67833830	     44.55901897	      0.00000000	      0.00000000	    -12.85612690	     -9.23420094	      4.60949085	     22.17891784	     43.94136603	      0.00000000	      0.00000000
     47.71742857	     -0.80382768	     -3.20124257	      7.24302454	      1.14239231	      0.91387403	      0.57959283	     13.50750350	      4.69411084	    -10.78689467	     30.19439510	     30.19439510	     18.97120520	    -14.12128836	     -1.01517569	     34.79489282	    -11.06929535	      4.97144936	     48.39584543	     48.39584543	      9.92245998	    -18.94142477	     15.57227213	    -11.65327793	      4.12887354	      0.49584442	     42.18097462	    -17.81663617	     -8.73813704	     61.44327655	     44.47492952	      0.00000000	      0.00000000	    -14.91330618	     -9.47759383	      5.76297758	     23.70287109	     43.67719194	      0.00000000	      0.00000000
     47.73835714	     -1.12993055	     -3.03508935	      8.20291658	      1.14173231	      0.91493794	      0.57793528	     13.18399925	      4.35380960	    -11.52874399	     29.47648267	     29.47648267	     18.97018933	    -14.02032290	     -0.61910812	     34.30217190	    -10.29454840	      4.62247736	     43.05576897	     43.05576897	      7.01650859	    -18.53551406	     10.61929812	    -11.37239337	      4.05947921	      0.96214380	     44.52311960	    -18.94214760	     -7.94480269	     63.03042080	     44.47574965	      0.00000000	      0.00000000	    -16.66059629	    -10.10880587	      8.31012141	     26.17060748	     43.24734685	      0.00000000	      0.00000000
     47.75928571	     -1.69043951	     -3.03082523	      9.09683676	      1.14079411	      0.91592660	      0.57607799	     13.13922779	      4.14236718	    -12.27016852	     28.71377358	     28.71377358	     18.70430361	    -14.06930695	     -0.38467404	     34.36672263	     -9.56558513	      4.52078674	     38.62651724	     38.62651724	      6.10144882	    -16.99046797	     11.33714500	    -10.81829299	      4.17651535	      1.42461997	     47.18299648	    -19.64999206	     -8.14756770	     63.98023861	     44.46774694	      0.00000000	      0.00000000	    -17.25901076	     -9.96478853	      8.48341700	     26.14665446	     43.21498608	      0.00000000	      0.00000000
     47.78021429	     -1.77261603	     -2.73475598	      9.86422665	      1.14045846	      0.91853505	      0.57409749	     12.06974589	      3.73591313	    -13.07944038	     27.20507505	     27.20507505	     18.43344596	    -13.32750883	     -0.24562662	     33.45376209	     -8.75733680	      4.09216064	     34.04753290	     34.04753290	      4.66025380	    -15.10877275	     11.39556065	    -10.87619375	      3.96301652	      1.59363778	     49.56881726	    -19.76372512	     -7.96482800	     65.30293454	     44.43828645	      0.00000000	      0.00000000	    -18.04454687	     -9.83597207	      8.94889800	     26.59811356	     43.13862304	      0.00000000	      0.00000000
     47.80114286	     -2.09713483	     -2.68235795	     10.52731713	      1.13999184	      0.92059320	      0.57218929	     11.37797836	      3.53756074	    -13.95726259	     25.80834869	     25.80834869	     18.07992843	    -12.49356587	     -0.21769019	     33.04670730	     -8.30065533	      3.52254586	     30.23032119	     30.23032119	      3.15907349	    -12.59524251	     11.21485966	    -10.64754977	      3.96460846	      1.82316285	     51.91924327	    -19.94366831	     -7.67580607	     66.57472009	     44.40689703	      0.00000000	      0.00000000	    -18.74513935	     -9.61276186	      9.42541274	     27.34233198	     43.06223780	      0.00000000	      0.00000000
